<mxfile host="app.diagrams.net" modified="2024-04-26T14:31:59.737Z" agent="Mozilla/5.0 (Macintosh; Intel Mac OS X 10_15_7) AppleWebKit/537.36 (KHTML, like Gecko) Chrome/124.0.0.0 Safari/537.36 Edg/124.0.0.0" version="24.3.0" etag="zHHJc7sC0ihlOLxtjJn_" type="github">
  <diagram name="Page-1" id="RRj9BaJbX6axOFNBkTYw">
    <mxGraphModel>
      <root>
        <mxCell id="0" />
        <mxCell id="1" parent="0" />
      </root>
    </mxGraphModel>
  </diagram>
</mxfile>
